<?xml version="1.0" encoding="UTF-8"?><svg id="a" xmlns="http://www.w3.org/2000/svg" viewBox="0 0 459 71.11"><defs><style>.b{fill:#fff;}</style></defs><path class="b" d="M2.01,15.51H7.88c.57,0,1.1,.03,1.57,.08,.47,.05,.81,.23,1.02,.55,.26,.31,.42,.74,.47,1.29,.05,.55,.08,1.11,.08,1.68v17.15c0,1.88,.08,3.66,.23,5.33,.16,1.67,.63,3.05,1.41,4.15,.73,1.1,1.91,1.88,3.52,2.35,.26,.05,.48,.08,.67,.08s.4,.03,.67,.08c.26,.05,.55,.08,.86,.08s.55-.03,.7-.08c.26-.1,.48-.13,.67-.08,.18,.05,.38,.03,.59-.08,1.1-.26,1.96-.6,2.58-1.02,.94-.57,1.68-1.32,2.23-2.23,.55-.91,.94-1.93,1.17-3.05,.23-1.12,.38-2.38,.43-3.76,.05-1.38,.08-2.83,.08-4.35V17.66c0-.5,.1-.9,.31-1.21,.26-.47,.65-.74,1.17-.82,.52-.08,1.15-.12,1.88-.12h5.64c.47,0,.86,.11,1.17,.31,.42,.26,.65,.65,.7,1.17,.05,.52,.08,1.12,.08,1.8V53.88c0,.52-.11,.91-.31,1.17-.26,.42-.65,.65-1.17,.71-.52,.05-1.07,.08-1.64,.08h-4.23c-.58,0-1.08-.03-1.53-.08-.44-.05-.8-.26-1.06-.63-.11-.16-.2-.39-.27-.7-.08-.31-.16-.63-.24-.94-.08-.31-.17-.6-.27-.86-.11-.26-.26-.42-.47-.47-.11-.1-.24-.13-.39-.08-.16,.05-.29,.11-.39,.16-.37,.21-.68,.44-.94,.7-.26,.26-.55,.5-.86,.7-.21,.16-.41,.33-.59,.51-.18,.18-.41,.35-.67,.51-1.2,.73-2.61,1.3-4.23,1.72-.37,.1-.73,.17-1.1,.2-.37,.03-.76,.09-1.17,.2-.21,.05-.43,.07-.67,.04-.23-.03-.46-.01-.67,.04-.16,.05-.48,.06-.98,.04-.5-.03-.82-.07-.98-.12-.26,0-.52-.01-.78-.04-.26-.03-.52-.04-.78-.04-.63-.16-1.23-.29-1.8-.39-.58-.11-1.15-.26-1.72-.47-.26-.1-.48-.2-.67-.27-.18-.08-.4-.17-.67-.27-1.83-.99-3.29-2.38-4.39-4.15-.68-1.1-1.17-2.41-1.49-3.96-.31-1.54-.51-3.18-.59-4.93-.08-1.75-.11-3.55-.08-5.4,.03-1.85,.04-3.69,.04-5.52v-10.65c0-.68-.01-1.47-.04-2.39-.03-.91,.09-1.58,.35-2,.16-.26,.47-.5,.94-.7,.31,0,.55-.03,.7-.08Z"/><path class="b" d="M69.36,14.41c.57,0,1.08,.05,1.53,.16,.44,.11,.8,.34,1.06,.7,.31,.42,.47,1.14,.47,2.15v2.7c0,.58,.01,1.23,.04,1.96,.03,.73-.07,1.31-.27,1.72-.21,.37-.51,.6-.9,.71-.39,.11-.84,.16-1.33,.16s-1.02-.03-1.57-.08c-.55-.05-1.06-.03-1.53,.08-.37,.11-.73,.17-1.1,.2-.37,.03-.7,.09-1.02,.2-.84,.26-1.67,.64-2.51,1.14-.84,.5-1.49,1.06-1.96,1.68-.26,.42-.54,.85-.82,1.29-.29,.44-.56,.9-.82,1.37-.16,.42-.3,.85-.43,1.29-.13,.44-.25,.87-.35,1.29-.11,.37-.16,.74-.16,1.14s-.05,.77-.16,1.14c-.05,.21-.07,.41-.04,.59,.03,.18,.01,.35-.04,.51v1.25c-.11,.37-.13,.77-.08,1.21,.05,.44,.08,.88,.08,1.29v11.67c0,.68-.03,1.31-.08,1.88-.05,.58-.21,1.05-.47,1.41-.11,.16-.27,.27-.51,.35-.23,.08-.48,.14-.74,.2h-.39c-.26,.05-.55,.08-.86,.08h-4.23c-.31-.05-.64-.08-.98-.08h-1.06c-.26-.1-.52-.2-.78-.27-.26-.08-.44-.25-.55-.51-.21-.26-.33-.64-.35-1.14-.03-.5-.04-1-.04-1.53V17.58c0-.5,.1-.9,.31-1.21,.26-.42,.65-.68,1.17-.78,.52-.1,1.15-.16,1.88-.16h3.99c.63,0,1.17,.04,1.64,.12,.47,.08,.83,.33,1.1,.74,.16,.26,.25,.63,.27,1.1,.03,.47,.06,.93,.12,1.37,.05,.44,.14,.85,.27,1.21,.13,.37,.38,.55,.74,.55,.1-.1,.21-.16,.31-.16s.21-.05,.31-.16c.31-.26,.59-.56,.82-.9,.23-.34,.53-.64,.9-.9,.21-.16,.39-.33,.55-.51,.16-.18,.34-.35,.55-.51,.47-.31,.95-.63,1.45-.94,.5-.31,1-.6,1.53-.86,.52-.21,1.06-.39,1.61-.55,.55-.16,1.11-.31,1.68-.47,.16-.05,.46-.06,.9-.04,.44,.03,.72-.01,.82-.12Z"/><path class="b" d="M117.45,33.6c.1,.31,.16,.85,.16,1.61s-.03,1.29-.08,1.61c0,.26-.01,.48-.04,.67-.03,.18-.04,.4-.04,.67-.11,.42-.16,.82-.16,1.21s-.05,.8-.16,1.21c0,.21-.05,.58-.16,1.1-.16,.63-.3,1.27-.43,1.92-.13,.65-.33,1.27-.59,1.84-.94,2.35-2.11,4.39-3.52,6.11-1.41,1.72-3.26,3.08-5.56,4.07-.47,.21-.95,.38-1.45,.51-.5,.13-1.03,.27-1.61,.43-.31,.1-.64,.16-.98,.16s-.67,.03-.98,.08h-.7c-.31,.1-.73,.14-1.25,.12-.52-.03-.94-.09-1.25-.2h-.47c-.26-.05-.55-.09-.86-.12-.31-.03-.63-.07-.94-.12-.99-.26-1.91-.52-2.74-.78-.84-.26-1.62-.63-2.35-1.1-.31-.21-.61-.42-.9-.63-.29-.21-.56-.44-.82-.7-.16-.1-.31-.21-.47-.31-.16-.1-.31-.18-.47-.23-.47-.16-.76-.05-.86,.31-.26,.37-.43,.8-.51,1.29-.08,.5-.27,.87-.59,1.14-.31,.21-.68,.33-1.1,.35-.42,.03-.89,.04-1.41,.04h-3.76c-.37,0-.74,.01-1.14,.04-.39,.03-.74-.01-1.06-.12-.73-.26-1.14-.74-1.21-1.45-.08-.7-.12-1.5-.12-2.39V2.35c0-.63,.13-1.12,.39-1.49,.21-.36,.57-.6,1.1-.7,.1-.05,.22-.06,.35-.04,.13,.03,.25,.01,.35-.04h4.93c.94,0,1.75,.04,2.43,.12,.68,.08,1.12,.48,1.33,1.21,.16,.52,.21,1.21,.16,2.08-.05,.86-.08,1.61-.08,2.23V15.98c0,.58,.05,1.07,.16,1.49,.05,.26,.1,.48,.16,.67,.05,.18,.18,.3,.39,.35,.1,.11,.25,.16,.43,.16s.33-.03,.43-.08c.36-.21,.7-.43,1.02-.67,.31-.24,.65-.48,1.02-.74,.68-.47,1.38-.87,2.12-1.21,.73-.34,1.54-.64,2.43-.9,.42-.16,.83-.25,1.25-.27,.42-.03,.83-.09,1.25-.2,.36-.1,.76-.16,1.17-.16h2.04c.16,.05,.34,.07,.55,.04,.21-.03,.42-.01,.63,.04,.57,.16,1.11,.27,1.61,.35,.5,.08,.98,.22,1.45,.43,2.4,.99,4.36,2.27,5.87,3.84,1.51,1.57,2.79,3.52,3.84,5.87,.26,.63,.48,1.28,.67,1.96,.18,.68,.38,1.38,.59,2.11,.1,.37,.17,.72,.2,1.06,.03,.34,.09,.72,.2,1.14,.1,.26,.14,.55,.12,.86-.03,.31-.01,.63,.04,.94v.55Zm-11.59,7.36c.16-.52,.3-1.17,.43-1.96,.13-.78,.21-1.58,.24-2.39,.03-.81,.03-1.62,0-2.43-.03-.81-.12-1.5-.27-2.08-.16-.52-.26-1.02-.31-1.49-.05-.47-.18-.91-.39-1.33-.73-1.83-1.76-3.38-3.09-4.66-1.33-1.28-3.28-1.92-5.83-1.92-.21,0-.39,.01-.55,.04-.16,.03-.34,.04-.55,.04-.37,.11-.7,.2-1.02,.27-.31,.08-.63,.17-.94,.27-1.52,.68-2.66,1.63-3.45,2.86-.78,1.23-1.44,2.62-1.96,4.19-.16,.42-.25,.85-.27,1.29-.03,.44-.09,.87-.2,1.29-.05,.16-.08,.42-.08,.78-.05,.21-.07,.42-.04,.63,.03,.21,.01,.42-.04,.63-.11,.42-.13,.99-.08,1.72,.05,.73,.13,1.25,.24,1.57,.1,.47,.17,.91,.2,1.33,.03,.42,.12,.84,.27,1.25,.47,1.46,1.03,2.73,1.68,3.8,.65,1.07,1.58,1.97,2.78,2.7,.83,.52,1.7,.89,2.58,1.1,.1,0,.22,.01,.35,.04,.13,.03,.27,.04,.43,.04,.16,.05,.42,.09,.78,.12,.36,.03,.68,.01,.94-.04,.52-.1,1-.2,1.45-.27,.44-.08,.87-.2,1.29-.35,1.46-.68,2.6-1.62,3.41-2.82,.81-1.2,1.47-2.61,2-4.23Z"/><path class="b" d="M161.39,52.71c.1,.58,.17,1.15,.2,1.72,.03,.58-.25,.97-.82,1.17-.31,.16-.68,.23-1.1,.23h-5.48c-.47,0-.93-.01-1.37-.04-.44-.03-.8-.14-1.06-.35-.37-.21-.64-.51-.82-.9-.18-.39-.43-.72-.74-.98-.11-.1-.24-.2-.39-.27-.16-.08-.37-.09-.63-.04-.26,.11-.51,.23-.74,.39s-.48,.29-.74,.39c-.26,.21-.55,.39-.86,.55s-.63,.31-.94,.47c-.68,.31-1.38,.56-2.12,.74-.73,.18-1.49,.38-2.27,.59-.37,.1-.72,.17-1.06,.2-.34,.03-.69,.06-1.06,.12-.16,0-.31,.01-.47,.04-.16,.03-.31,.04-.47,.04h-.86c-.52,.1-1.04,.1-1.57,0h-.7c-.37-.11-.72-.14-1.06-.12-.34,.03-.67-.01-.98-.12-.52-.11-1.02-.2-1.49-.27-.47-.08-.91-.22-1.33-.43-1.51-.57-2.81-1.32-3.88-2.23-1.07-.91-1.92-2.13-2.55-3.64-.16-.36-.3-.76-.43-1.17-.13-.42-.25-.86-.35-1.33-.11-.26-.14-.52-.12-.78,.03-.26,.01-.52-.04-.78-.05-.16-.09-.48-.12-.98-.03-.5-.01-.85,.04-1.06,.1-.52,.16-.97,.16-1.33,.16-.57,.31-1.16,.47-1.76,.16-.6,.36-1.14,.63-1.61,.89-1.51,1.91-2.66,3.05-3.45,1.15-.78,2.61-1.46,4.39-2.04,.68-.26,1.38-.44,2.12-.55,.73-.1,1.46-.24,2.19-.39,.42-.1,.86-.17,1.33-.2,.47-.03,.94-.09,1.41-.2,.36-.1,.73-.14,1.1-.12,.36,.03,.76-.01,1.17-.12,.36-.1,.73-.16,1.1-.16s.76-.05,1.17-.16c1.1-.26,2.1-.48,3.02-.67,.91-.18,1.74-.64,2.47-1.37,.47-.47,.78-.99,.94-1.57,.05-.16,.06-.29,.04-.39-.03-.1-.01-.21,.04-.31,.05-.1,.08-.26,.08-.47v-.47c-.05-.21-.09-.42-.12-.63-.03-.21-.07-.39-.12-.55-.52-1.57-1.62-2.64-3.29-3.21-.47-.16-1.03-.27-1.68-.35-.65-.08-1.32-.1-2-.08-.68,.03-1.33,.09-1.96,.2-.63,.11-1.17,.23-1.64,.39-.31,.11-.61,.25-.9,.43-.29,.18-.56,.38-.82,.59-.26,.21-.54,.5-.82,.86-.29,.37-.48,.7-.59,1.02-.26,.52-.48,1.02-.67,1.49-.18,.47-.56,.78-1.14,.94-.42,.11-.86,.16-1.33,.16h-4.39c-.26,0-.52,.01-.78,.04-.26,.03-.5,.01-.7-.04h-.7c-.11-.05-.23-.08-.39-.08s-.29-.05-.39-.16c-.42-.1-.7-.44-.86-1.02-.05-.26-.05-.52,0-.78,.05-.26,.1-.5,.16-.7,.16-.57,.33-1.11,.51-1.61,.18-.5,.4-.95,.67-1.37,.16-.26,.31-.52,.47-.78,.16-.26,.31-.52,.47-.78,.42-.57,.94-1.12,1.57-1.64,.1-.05,.26-.18,.47-.39,.26-.21,.5-.39,.7-.55,.21-.16,.44-.31,.7-.47,.89-.57,1.83-1.03,2.82-1.37,.99-.34,2.01-.67,3.05-.98,.63-.16,1.28-.26,1.96-.31,.68-.05,1.36-.16,2.04-.31,.21-.05,.53-.05,.98,0,.44,.05,.72,.03,.82-.08,2.14-.05,4.19,.03,6.15,.23,1.96,.21,3.73,.6,5.33,1.17,1.59,.58,2.96,1.34,4.11,2.31,1.15,.97,2.04,2.21,2.66,3.72,.36,.89,.57,1.91,.63,3.05,.05,1.15,.08,2.32,.08,3.52v20.48c0,1.02,.1,1.95,.31,2.78,.05,.16,.08,.33,.08,.51s.03,.35,.08,.51Zm-11.51-12.06c.05-.26,.08-.56,.08-.9s-.03-.64-.08-.9c-.11-.31-.16-.6-.16-.86s-.11-.47-.31-.63c-.26-.21-.65-.31-1.17-.31-.21,.05-.39,.09-.55,.12-.16,.03-.34,.07-.55,.12-.37,.11-.76,.18-1.17,.23-.42,.05-.84,.13-1.25,.24-.16,.05-.39,.08-.7,.08-.68,.16-1.36,.26-2.04,.31-.68,.05-1.33,.18-1.96,.39-.42,.11-.81,.2-1.17,.27-.37,.08-.73,.2-1.1,.35-1.1,.47-2.02,1.17-2.78,2.11-.76,.94-1.03,2.25-.82,3.92,.1,.89,.39,1.62,.86,2.19,.36,.58,.91,1.03,1.64,1.37,.73,.34,1.53,.59,2.39,.74s1.77,.2,2.74,.12c.97-.08,1.87-.25,2.7-.51,1.36-.42,2.43-1.08,3.21-2,.78-.91,1.38-2.05,1.8-3.41,.1-.36,.17-.74,.2-1.14,.03-.39,.09-.8,.2-1.21v-.7Z"/><path class="b" d="M192.64,14.41c3.13-.1,5.74,.34,7.83,1.33,2.09,.99,3.73,2.45,4.93,4.39,.36,.58,.65,1.19,.86,1.84,.21,.65,.42,1.32,.63,2,.1,.42,.17,.81,.2,1.17,.03,.37,.09,.73,.2,1.1,0,.31,.03,.52,.08,.63,.1,.73,.16,1.49,.16,2.27v21.93c0,.99-.01,1.95-.04,2.86-.03,.91-.4,1.5-1.14,1.76-.31,.11-.68,.16-1.1,.16h-5.48c-.63,0-1.19-.04-1.68-.12-.5-.08-.87-.3-1.14-.67-.21-.31-.33-.72-.35-1.21-.03-.5-.04-1.03-.04-1.61v-17.15c0-1.93-.08-3.72-.23-5.37-.16-1.64-.63-3.04-1.41-4.19-.73-1.04-1.8-1.77-3.21-2.19-.26-.1-.54-.16-.82-.16s-.59-.05-.9-.16c-.26-.05-.59-.06-.98-.04-.39,.03-.69,.07-.9,.12-.21,.05-.39,.08-.55,.08s-.31,.03-.47,.08c-1.2,.31-2.17,.73-2.9,1.25-1.67,1.2-2.66,2.95-2.98,5.25-.31,2.3-.47,4.88-.47,7.75v15.98c0,.47-.08,.86-.23,1.17-.26,.58-.68,.91-1.25,1.02-.58,.11-1.28,.16-2.11,.16h-3.92c-.58,0-1.15-.03-1.72-.08-.58-.05-.99-.24-1.25-.55-.37-.47-.54-1.15-.51-2.04,.03-.89,.04-1.72,.04-2.51V18.8c0-.57,.01-1.1,.04-1.57,.03-.47,.17-.86,.43-1.17,.1-.16,.27-.27,.51-.35,.24-.08,.48-.14,.74-.2h.39c.26-.05,.53-.08,.82-.08h4.11c.42,0,.82,.01,1.21,.04,.39,.03,.74,.09,1.06,.2,.36,.16,.61,.39,.74,.7,.13,.31,.25,.68,.35,1.1,.05,.21,.06,.39,.04,.55-.03,.16,.01,.31,.12,.47,.1,.26,.2,.42,.27,.47,.08,.05,.2,.13,.35,.24,.57,.05,1.04-.14,1.41-.59,.36-.44,.76-.8,1.17-1.06,1.41-1.04,2.98-1.88,4.7-2.51,.47-.16,.95-.26,1.45-.31,.5-.05,1.03-.13,1.61-.24,.16-.05,.39-.06,.71-.04,.31,.03,.52,.01,.63-.04Z"/><path class="b" d="M249.97,54.28c0,2.04-.04,4.01-.12,5.91-.08,1.91-.51,3.49-1.29,4.74-.68,1.04-1.46,1.91-2.35,2.58-.89,.68-1.98,1.23-3.29,1.64-.47,.16-.94,.26-1.41,.31-.47,.05-.94,.13-1.41,.24-.37,.05-.73,.08-1.1,.08s-.73,.03-1.1,.08h-.86c-.31,.1-.8,.16-1.45,.16s-1.11-.05-1.37-.16c-.78-.16-1.33-.47-1.64-.94-.1-.26-.17-.58-.2-.94-.03-.37-.04-.76-.04-1.17,0-.37-.01-.78-.04-1.25-.03-.47-.04-.94-.04-1.41s.03-.91,.08-1.33c.05-.42,.13-.76,.24-1.02,.26-.58,.73-.85,1.41-.82,.68,.03,1.36-.07,2.04-.27,1.51-.37,2.45-1.36,2.82-2.98,.05-.21,.06-.42,.04-.63-.03-.21-.01-.44,.04-.7,.1-.31,.14-.65,.12-1.02-.03-.36-.04-.73-.04-1.1V19.66c0-.57-.01-1.19-.04-1.84-.03-.65,.09-1.19,.35-1.61,.21-.36,.63-.63,1.25-.78,.1,0,.26,.01,.47,.04,.21,.03,.36-.01,.47-.12h3.92c.31,0,.65-.01,1.02-.04,.36-.03,.68,.01,.94,.12h.7c.26,.11,.53,.18,.82,.23,.29,.05,.48,.21,.59,.47,.16,.26,.27,.6,.35,1.02,.08,.42,.13,.89,.16,1.41,.03,.52,.03,1.05,0,1.57-.03,.52-.04,.99-.04,1.41V54.28Zm-7.91-45.27c-.52,0-1.02-.03-1.49-.08-.47-.05-.84-.24-1.1-.55-.21-.21-.35-.53-.43-.98-.08-.44-.12-.91-.12-1.41s.01-1,.04-1.53c.03-.52,.04-.99,.04-1.41s.01-.83,.04-1.25c.03-.42,.12-.76,.27-1.02,.1-.16,.25-.29,.43-.39,.18-.1,.35-.21,.51-.31,.1,0,.22-.01,.35-.04,.13-.03,.25-.04,.35-.04h7.09c.5,0,.9,.13,1.21,.39,.47,.37,.7,1.03,.7,2v2.7c0,.26,.01,.55,.04,.86,.03,.31-.01,.6-.12,.86v.47c-.11,.58-.29,.99-.55,1.25-.31,.26-.72,.4-1.21,.43-.5,.03-1.03,.04-1.61,.04h-4.46Z"/><path class="b" d="M261.71,15.51h5.87c.57,0,1.1,.03,1.57,.08,.47,.05,.81,.23,1.02,.55,.26,.31,.42,.74,.47,1.29,.05,.55,.08,1.11,.08,1.68v17.15c0,1.88,.08,3.66,.23,5.33,.16,1.67,.63,3.05,1.41,4.15,.73,1.1,1.91,1.88,3.52,2.35,.26,.05,.48,.08,.67,.08s.4,.03,.67,.08c.26,.05,.55,.08,.86,.08s.55-.03,.7-.08c.26-.1,.48-.13,.67-.08,.18,.05,.38,.03,.59-.08,1.1-.26,1.96-.6,2.58-1.02,.94-.57,1.68-1.32,2.23-2.23,.55-.91,.94-1.93,1.17-3.05,.23-1.12,.38-2.38,.43-3.76,.05-1.38,.08-2.83,.08-4.35V17.66c0-.5,.1-.9,.31-1.21,.26-.47,.65-.74,1.17-.82,.52-.08,1.15-.12,1.88-.12h5.64c.47,0,.86,.11,1.17,.31,.42,.26,.65,.65,.7,1.17,.05,.52,.08,1.12,.08,1.8V53.88c0,.52-.11,.91-.31,1.17-.26,.42-.65,.65-1.17,.71-.52,.05-1.07,.08-1.64,.08h-4.23c-.58,0-1.08-.03-1.53-.08-.44-.05-.8-.26-1.06-.63-.11-.16-.2-.39-.27-.7-.08-.31-.16-.63-.24-.94-.08-.31-.17-.6-.27-.86-.11-.26-.26-.42-.47-.47-.11-.1-.24-.13-.39-.08-.16,.05-.29,.11-.39,.16-.37,.21-.68,.44-.94,.7-.26,.26-.55,.5-.86,.7-.21,.16-.41,.33-.59,.51-.18,.18-.41,.35-.67,.51-1.2,.73-2.61,1.3-4.23,1.72-.37,.1-.73,.17-1.1,.2-.37,.03-.76,.09-1.17,.2-.21,.05-.43,.07-.67,.04-.23-.03-.46-.01-.67,.04-.16,.05-.48,.06-.98,.04-.5-.03-.82-.07-.98-.12-.26,0-.52-.01-.78-.04-.26-.03-.52-.04-.78-.04-.63-.16-1.23-.29-1.8-.39-.58-.11-1.15-.26-1.72-.47-.26-.1-.48-.2-.67-.27-.18-.08-.4-.17-.67-.27-1.83-.99-3.29-2.38-4.39-4.15-.68-1.1-1.17-2.41-1.49-3.96-.31-1.54-.51-3.18-.59-4.93-.08-1.75-.11-3.55-.08-5.4,.03-1.85,.04-3.69,.04-5.52v-10.65c0-.68-.01-1.47-.04-2.39-.03-.91,.09-1.58,.35-2,.16-.26,.47-.5,.94-.7,.31,0,.55-.03,.7-.08Z"/><path class="b" d="M329.07,14.41c3.13-.1,5.74,.34,7.83,1.33,2.09,.99,3.73,2.45,4.93,4.39,.36,.58,.65,1.19,.86,1.84,.21,.65,.42,1.32,.63,2,.1,.42,.17,.81,.2,1.17,.03,.37,.09,.73,.2,1.1,0,.31,.03,.52,.08,.63,.1,.73,.16,1.49,.16,2.27v21.93c0,.99-.01,1.95-.04,2.86-.03,.91-.4,1.5-1.14,1.76-.31,.11-.68,.16-1.1,.16h-5.48c-.63,0-1.19-.04-1.68-.12-.5-.08-.87-.3-1.14-.67-.21-.31-.33-.72-.35-1.21-.03-.5-.04-1.03-.04-1.61v-17.15c0-1.93-.08-3.72-.23-5.37-.16-1.64-.63-3.04-1.41-4.19-.73-1.04-1.8-1.77-3.21-2.19-.26-.1-.54-.16-.82-.16s-.59-.05-.9-.16c-.26-.05-.59-.06-.98-.04-.39,.03-.69,.07-.9,.12-.21,.05-.39,.08-.55,.08s-.31,.03-.47,.08c-1.2,.31-2.17,.73-2.9,1.25-1.67,1.2-2.66,2.95-2.98,5.25-.31,2.3-.47,4.88-.47,7.75v15.98c0,.47-.08,.86-.23,1.17-.26,.58-.68,.91-1.25,1.02-.58,.11-1.28,.16-2.11,.16h-3.92c-.58,0-1.15-.03-1.72-.08-.58-.05-.99-.24-1.25-.55-.37-.47-.54-1.15-.51-2.04,.03-.89,.04-1.72,.04-2.51V18.8c0-.57,.01-1.1,.04-1.57,.03-.47,.17-.86,.43-1.17,.1-.16,.27-.27,.51-.35,.24-.08,.48-.14,.74-.2h.39c.26-.05,.53-.08,.82-.08h4.11c.42,0,.82,.01,1.21,.04,.39,.03,.74,.09,1.06,.2,.36,.16,.61,.39,.74,.7,.13,.31,.25,.68,.35,1.1,.05,.21,.06,.39,.04,.55-.03,.16,.01,.31,.12,.47,.1,.26,.2,.42,.27,.47,.08,.05,.2,.13,.35,.24,.57,.05,1.04-.14,1.41-.59,.36-.44,.76-.8,1.17-1.06,1.41-1.04,2.98-1.88,4.7-2.51,.47-.16,.95-.26,1.45-.31,.5-.05,1.03-.13,1.61-.24,.16-.05,.39-.06,.71-.04,.31,.03,.52,.01,.63-.04Z"/><path class="b" d="M390.78,15.9c.36,.26,.56,.69,.59,1.29,.03,.6,.04,1.21,.04,1.84V52.47c0,.42-.01,.82-.04,1.21-.03,.39-.04,.8-.04,1.21-.05,.42-.09,.8-.12,1.14-.03,.34-.07,.72-.12,1.14-.21,.73-.38,1.42-.51,2.08-.13,.65-.33,1.27-.59,1.84-.89,1.98-2.02,3.63-3.41,4.93-1.38,1.3-3.07,2.38-5.05,3.21-.58,.26-1.15,.47-1.72,.63-.58,.16-1.17,.31-1.8,.47-.58,.16-1.15,.26-1.72,.31-.58,.05-1.15,.13-1.72,.24-.21,0-.42,.01-.63,.04-.21,.03-.44,.04-.7,.04-.21,.05-.44,.06-.7,.04-.26-.03-.52-.01-.78,.04-.26,.05-.6,.08-1.02,.08s-.76-.03-1.02-.08h-.7c-.21,0-.42-.03-.63-.08-.42-.11-.85-.16-1.29-.16s-.85-.05-1.21-.16c-.11-.05-.23-.08-.39-.08s-.29-.03-.39-.08c-.52-.11-1.03-.22-1.53-.35-.5-.13-.98-.3-1.45-.51-1.98-.84-3.76-1.89-5.33-3.17-1.57-1.28-2.72-2.99-3.45-5.13-.11-.16-.16-.31-.16-.47s-.03-.29-.08-.39c-.16-.68-.09-1.19,.2-1.53,.29-.34,.69-.56,1.21-.67,.52-.11,1.11-.14,1.76-.12,.65,.03,1.27,.04,1.84,.04h2.66c.26,0,.48,.01,.67,.04,.18,.03,.4,.04,.67,.04,.83,.21,1.36,.48,1.57,.82,.21,.34,.52,.8,.94,1.37,.16,.21,.39,.47,.7,.78,.05,.1,.1,.18,.16,.24s.1,.13,.16,.23c.42,.31,.86,.6,1.33,.86,.47,.26,.99,.5,1.57,.7,.36,.1,.73,.17,1.1,.2,.36,.03,.76,.09,1.17,.2h.86c.36,.1,.83,.12,1.41,.04,.57-.08,1.02-.17,1.33-.27,.26-.11,.48-.16,.67-.16s.38-.05,.59-.16c1.1-.47,2.01-1.1,2.74-1.88,.73-.78,1.33-1.7,1.8-2.74,.1-.31,.18-.63,.23-.94,.05-.31,.13-.65,.23-1.02,.1-.47,.17-.98,.2-1.53,.03-.55,.04-1.11,.04-1.68,0-.21,.01-.42,.04-.63,.03-.21,.01-.39-.04-.55-.11-.26-.14-.5-.12-.71,.03-.21-.01-.42-.12-.63-.05-.1-.12-.18-.2-.24-.08-.05-.17-.13-.27-.23-.47-.05-.85,.05-1.14,.31-.29,.26-.56,.5-.82,.7-.47,.37-.94,.7-1.41,1.02s-.99,.6-1.57,.86c-.58,.26-1.15,.47-1.72,.63-.58,.16-1.17,.31-1.8,.47-.31,.05-.61,.09-.9,.12-.29,.03-.56,.07-.82,.12-.26,.05-.68,.08-1.25,.08s-.99-.03-1.25-.08h-.63c-.16-.05-.33-.08-.51-.08s-.38-.03-.59-.08c-.73-.16-1.44-.3-2.12-.43-.68-.13-1.31-.33-1.88-.59-2.25-.89-4.06-2.13-5.44-3.72-1.38-1.59-2.55-3.51-3.49-5.76-.26-.57-.44-1.17-.55-1.8-.11-.63-.26-1.25-.47-1.88,0-.26-.03-.47-.08-.63-.11-.42-.16-.87-.16-1.37s-.05-.95-.16-1.37c-.05-.26-.08-.51-.08-.74v-.74c-.05-.26-.08-.59-.08-.98s.03-.72,.08-.98v-.78c.05-.21,.06-.42,.04-.63-.03-.21,.01-.42,.12-.63,.1-.52,.18-1.03,.23-1.53,.05-.5,.13-1,.23-1.53,.31-1.04,.64-2.04,.98-2.98,.34-.94,.77-1.83,1.29-2.66,.26-.52,.56-1,.9-1.45,.34-.44,.69-.9,1.06-1.37,.16-.26,.38-.52,.67-.78,.29-.26,.56-.5,.82-.7l.47-.47c.26-.21,.52-.4,.78-.59,.26-.18,.52-.35,.78-.51,.68-.42,1.38-.78,2.11-1.1,.73-.31,1.54-.6,2.43-.86,.42-.16,.85-.25,1.29-.27,.44-.03,.87-.09,1.29-.2,.21-.05,.5-.05,.86,0,.36,.05,.6,.03,.7-.08,1.67-.05,3.17,.11,4.5,.47,1.33,.37,2.52,.89,3.56,1.57,.16,.11,.31,.22,.47,.35,.16,.13,.34,.27,.55,.43,.31,.26,.6,.52,.86,.78,.26,.26,.57,.5,.94,.7,.1,.05,.25,.11,.43,.16,.18,.05,.33,.03,.43-.08,.26-.1,.42-.29,.47-.55,.05-.26,.13-.52,.24-.78,.1-.26,.2-.53,.27-.82,.08-.29,.22-.53,.43-.74,.31-.21,.69-.33,1.14-.35,.44-.03,.9-.04,1.37-.04h3.99c.57,0,1.08,.01,1.53,.04,.44,.03,.82,.17,1.14,.43Zm-10.73,24.2c.21-.47,.39-1.07,.55-1.8,.16-.73,.26-1.5,.31-2.31,.05-.81,.06-1.61,.04-2.39-.03-.78-.12-1.49-.27-2.11-.11-.21-.14-.38-.12-.51,.03-.13,.01-.3-.04-.51-.11-.36-.21-.73-.31-1.1-.11-.36-.24-.7-.39-1.02-.73-1.83-1.78-3.24-3.13-4.23-1.36-.99-3.34-1.49-5.95-1.49-.11,.11-.25,.14-.43,.12-.18-.03-.35-.01-.51,.04-.37,.11-.7,.2-1.02,.27-.31,.08-.63,.17-.94,.27-1.36,.58-2.4,1.44-3.13,2.58-.73,1.15-1.33,2.43-1.8,3.84-.11,.26-.16,.47-.16,.63s-.03,.37-.08,.63c-.16,.58-.26,1.41-.31,2.51-.05,1.1,0,1.98,.16,2.66v.78c.1,.42,.18,.82,.23,1.21,.05,.39,.13,.8,.23,1.21,.47,1.36,1.04,2.55,1.72,3.56,.68,1.02,1.62,1.84,2.82,2.47,.52,.26,1.25,.52,2.19,.78,.36,0,.65,.03,.86,.08,.1,0,.26,.01,.47,.04,.21,.03,.36,.01,.47-.04h.78c.47-.1,.91-.18,1.33-.23,.42-.05,.83-.18,1.25-.39,1.3-.52,2.36-1.25,3.17-2.19,.81-.94,1.47-2.06,2-3.37Z"/><path class="b" d="M402.92,0h5.72c.52,0,1.02,.03,1.49,.08,.47,.05,.83,.21,1.1,.47,.31,.37,.48,.85,.51,1.45,.03,.6,.04,1.21,.04,1.84V50.91c0,.63,.01,1.34,.04,2.15,.03,.81-.09,1.42-.35,1.84-.26,.42-.73,.7-1.41,.86-.31,.1-.67,.13-1.06,.08s-.77-.08-1.14-.08h-3.76c-.58,0-1.1-.03-1.57-.08-.47-.05-.86-.21-1.17-.47-.31-.26-.48-.67-.51-1.21-.03-.55-.04-1.11-.04-1.68V5.33c0-.68-.01-1.49-.04-2.43-.03-.94,.09-1.62,.35-2.04,.1-.21,.25-.36,.43-.47,.18-.1,.38-.21,.59-.31,.1,0,.23-.01,.39-.04,.16-.03,.29-.04,.39-.04Z"/><path class="b" d="M458.92,35.24c.1,.42,.1,.89,0,1.41-.11,.52-.29,.86-.55,1.02-.26,.21-.64,.35-1.14,.43-.5,.08-1.04,.13-1.64,.16-.6,.03-1.2,.03-1.8,0-.6-.03-1.14-.04-1.61-.04h-20.17c-.34,0-.64,.05-.9,.16-.42,.21-.68,.42-.78,.63-.11,.11-.21,.3-.31,.59-.11,.29-.13,.56-.08,.82,.1,.31,.17,.61,.2,.9,.03,.29,.09,.59,.2,.9,.42,1.25,.93,2.28,1.53,3.09,.6,.81,1.42,1.53,2.47,2.15,.42,.26,.85,.43,1.29,.51,.44,.08,.9,.2,1.37,.35,.42,.11,.99,.18,1.72,.24,.73,.05,1.36,.03,1.88-.08h.7c.52-.1,1-.22,1.45-.35,.44-.13,.87-.27,1.29-.43,.52-.26,1.11-.6,1.76-1.02,.65-.42,1.14-.83,1.45-1.25,.26-.36,.53-.72,.82-1.06,.29-.34,.64-.59,1.06-.74,.52-.26,1.19-.38,2-.35,.81,.03,1.55,.04,2.23,.04,.31,0,.64-.01,.98-.04,.34-.03,.64,.01,.9,.12h.78c.52,.11,.89,.24,1.1,.39,.21,.11,.33,.34,.35,.7,.03,.37-.01,.68-.12,.94-.26,.73-.55,1.38-.86,1.96-.31,.58-.68,1.15-1.1,1.72-1.15,1.72-2.45,3.11-3.92,4.15-1.46,1.05-3.29,1.93-5.48,2.66-.58,.21-1.15,.34-1.72,.39-.58,.05-1.17,.16-1.8,.31-.21,.05-.43,.06-.67,.04-.23-.03-.46-.01-.67,.04h-.86c-.26,.1-.56,.14-.9,.12-.34-.03-.64-.07-.9-.12-.42-.05-.78-.05-1.1,0-.31,.05-.65,.03-1.02-.08-.26-.11-.55-.16-.86-.16s-.6-.05-.86-.16c-.58-.11-1.15-.22-1.72-.35-.58-.13-1.1-.33-1.57-.59-.58-.21-1.11-.4-1.61-.59-.5-.18-.95-.4-1.37-.67-1.67-1.04-3.16-2.26-4.46-3.64-1.31-1.38-2.38-2.99-3.21-4.82-.26-.57-.47-1.16-.63-1.76-.16-.6-.37-1.21-.63-1.84-.05-.21-.08-.4-.08-.59s-.03-.38-.08-.59c-.21-.63-.34-1.3-.39-2.04-.05-.73-.11-1.46-.16-2.19,0-.26-.01-.55-.04-.86-.03-.31-.01-.6,.04-.86v-.94l.23-1.88c.21-.89,.39-1.75,.55-2.58,.16-.83,.39-1.62,.7-2.35,2.24-5.43,6.06-9.27,11.44-11.51,.73-.31,1.47-.53,2.23-.67,.76-.13,1.55-.3,2.39-.51,.42-.05,.81-.08,1.17-.08s.76-.03,1.17-.08c2.66-.05,4.95,.25,6.85,.9,1.91,.65,3.61,1.5,5.13,2.55,.47,.31,.94,.67,1.41,1.06,.47,.39,.89,.8,1.25,1.21,.16,.26,.36,.47,.63,.63,.42,.58,.81,1.16,1.17,1.76,.36,.6,.76,1.21,1.17,1.84,.26,.47,.48,.95,.67,1.45,.18,.5,.38,1.03,.59,1.61,.26,.68,.47,1.38,.63,2.11,.16,.73,.34,1.46,.55,2.19,.1,.42,.14,.87,.12,1.37-.03,.5,.01,.95,.12,1.37v.86Zm-11.75-4.62c.36-.52,.4-1.16,.12-1.92-.29-.76-.51-1.32-.67-1.68-.73-1.41-1.7-2.49-2.9-3.25-1.2-.76-2.87-1.16-5.01-1.21-.16,.11-.34,.13-.55,.08-.21-.05-.39-.05-.55,0-.26,.11-.55,.17-.86,.2-.31,.03-.6,.09-.86,.2-2.3,.73-3.99,2.17-5.09,4.31-.11,.21-.22,.48-.35,.82-.13,.34-.22,.68-.27,1.02-.05,.34-.04,.67,.04,.98,.08,.31,.25,.58,.51,.78,.42,.26,.99,.39,1.72,.39h10.81c.73,0,1.5-.01,2.31-.04,.81-.03,1.34-.25,1.61-.67Z"/></svg>